<svg xmlns="http://www.w3.org/2000/svg" viewBox="35 20 70 70" width="100%" height="100%">
    <g transform="translate(10, 2)" fill="#282828" stroke="#ffffff" stroke-width="2.5" stroke-linecap="round" stroke-linejoin="round">
        <path d="M 35 45 L 30 25 L 48 35" />
        <path d="M 85 45 L 90 25 L 72 35" />
        <path d="M 35 45 C 30 65, 40 85, 60 85 C 80 85, 90 65, 85 45 C 80 32, 40 32, 35 45 Z" />
        <path d="M 48 62 Q 60 56 72 62 Q 75 72 60 76 Q 45 72 48 62 Z" />
        <line x1="56" y1="67" x2="56" y2="69" stroke-width="3" />
        <line x1="64" y1="67" x2="64" y2="69" stroke-width="3" />
        <polygon points="36,44 56,42 54,54 40,54" fill="#ffffff" stroke="#ffffff" stroke-width="1" />
        <polygon points="84,44 64,42 66,54 80,54" fill="#ffffff" stroke="#ffffff" stroke-width="1" />
        <line x1="54" y1="44" x2="66" y2="44" stroke="#ffffff" stroke-width="2.5" />
    </g>
</svg>

